<?xml version="1.0" encoding="utf-8"?>
<!-- Generator: Adobe Illustrator 27.8.1, SVG Export Plug-In . SVG Version: 6.00 Build 0)  -->
<svg version="1.1" id="Capa_1" xmlns="http://www.w3.org/2000/svg" xmlns:xlink="http://www.w3.org/1999/xlink" x="0px" y="0px"
	 viewBox="0 0 1000 1000" style="enable-background:new 0 0 0 0;" xml:space="preserve">
<style type="text/css">
	.st0{fill:#1D1D1B;}
</style>
<g>
	<path class="st0" d="M234.21,830.4c0-25.37-20.11-39.4-51.15-39.4h-49.93v109.44h31.17v-29.82h17.68
		C216.26,870.61,234.21,854.96,234.21,830.4z M179.42,846.86H164.3v-32.25h15.65c15.79,0,23.89,5.94,23.89,16.06
		C203.84,841.06,195.88,846.86,179.42,846.86z"/>
	<path class="st0" d="M274.18,790.99l-58.03,109.44h32.93l8.77-17.14h59.51l8.77,17.14h32.93L300.9,790.99H274.18z M270.54,858.47
		l17-33.2l17,33.2H270.54z"/>
	<polygon class="st0" points="451.64,847.53 387.27,790.99 372.56,790.99 372.56,900.44 403.73,900.44 403.73,844.57 468.51,900.44 
		482.81,900.44 482.81,790.99 451.64,790.99 	"/>
	<path class="st0" d="M577.68,877.9c-2.97,0.54-6.07,0.81-9.04,0.81c-24.97,0-43.32-12.82-43.32-32.12
		c0-18.22,18.35-31.44,43.32-31.44c14.84,0,26.85,4.99,36.98,13.09v-29.42c-10.12-7.15-24.16-11.2-39.68-11.2
		c-38.32,0-69.63,25.91-69.63,58.03c0,32.12,31.31,58.16,69.63,58.16c15.52,0,29.69-3.91,39.95-11.34v-47.5h-28.2V877.9z"/>
	<polygon class="st0" points="650.68,855.77 695.89,855.77 695.89,830.94 650.68,830.94 650.68,815.82 708.84,815.82 708.84,790.99 
		619.38,790.99 619.38,900.44 710.46,900.44 710.46,875.74 650.68,875.74 	"/>
	<path class="st0" d="M808.7,790.99h-26.72l-58.03,109.44h32.93l8.77-17.14h59.51l8.77,17.14h32.93L808.7,790.99z M778.34,858.47
		l17-33.2l17,33.2H778.34z"/>
</g>
<g>
	<path class="st0" d="M178.09,946.38c0-2.15,1.79-3.76,4.31-3.76s4.17,1.55,4.24,3.76c0,2.15-1.72,3.76-4.31,3.76
		C179.82,950.15,178.01,948.53,178.09,946.38z"/>
	<path class="st0" d="M228.77,956.6c0.91,0,1.75-0.1,2.54-0.3c0.79-0.2,1.5-0.53,2.12-0.99c0.62-0.45,1.12-1.04,1.5-1.76
		c0.38-0.72,0.6-1.62,0.65-2.69h7.18c0,3.62-1.21,6.49-3.63,8.6c-2.42,2.11-5.88,3.14-10.38,3.1c-2.73,0-5.07-0.52-7-1.55
		c-1.94-1.03-3.55-2.39-4.81-4.06c-1.27-1.67-2.19-3.57-2.76-5.7c-0.58-2.13-0.86-4.29-0.86-6.48c0-1.91,0.28-3.86,0.86-5.88
		c0.57-2.01,1.47-3.86,2.69-5.55c1.21-1.69,2.78-3.11,4.7-4.24c1.91-1.14,4.24-1.77,6.96-1.88c1.91-0.08,3.73,0.12,5.43,0.6
		c1.69,0.47,3.18,1.18,4.49,2.12c1.29,0.93,2.31,2.07,3.08,3.41c0.76,1.33,1.17,2.83,1.22,4.51h-7.18c0-1.52-0.67-2.69-2.01-3.52
		c-1.34-0.83-2.91-1.22-4.74-1.13c-1.58,0.07-2.9,0.52-3.99,1.31c-1.07,0.8-1.93,1.77-2.58,2.9c-0.64,1.13-1.1,2.37-1.36,3.7
		c-0.26,1.34-0.39,2.57-0.39,3.67c0,1.07,0.09,2.29,0.28,3.65c0.19,1.35,0.59,2.63,1.18,3.85c0.6,1.22,1.44,2.24,2.51,3.07
		C225.58,956.18,227,956.6,228.77,956.6z"/>
	<path class="st0" d="M287.28,927.17c2.72,0,5.21,0.47,7.43,1.4c2.22,0.94,4.13,2.2,5.71,3.79c1.57,1.6,2.79,3.41,3.66,5.46
		s1.29,4.17,1.29,6.36c0,2.42-0.38,4.76-1.14,6.98c-0.77,2.23-1.9,4.19-3.42,5.88c-1.5,1.69-3.39,3.04-5.64,4.03
		c-2.24,1-4.88,1.49-7.89,1.49c-3.01,0-5.65-0.51-7.9-1.52c-2.24-1.02-4.13-2.38-5.63-4.09c-1.51-1.72-2.63-3.67-3.38-5.88
		c-0.74-2.22-1.11-4.49-1.11-6.84c0-2.11,0.41-4.18,1.25-6.21c0.84-2.02,2.02-3.84,3.56-5.43s3.41-2.88,5.64-3.88
		C281.93,927.73,284.46,927.21,287.28,927.17z M287.28,956.6c1.86,0,3.5-0.35,4.88-1.05c1.39-0.69,2.52-1.61,3.42-2.75
		c0.88-1.13,1.54-2.45,1.97-3.94c0.43-1.49,0.64-3.05,0.64-4.68c0-1.4-0.24-2.76-0.71-4.09c-0.48-1.33-1.19-2.52-2.12-3.56
		c-0.93-1.03-2.06-1.86-3.41-2.47s-2.89-0.92-4.67-0.92s-3.33,0.32-4.67,0.98c-1.34,0.66-2.46,1.51-3.38,2.57
		c-0.91,1.06-1.6,2.24-2.08,3.56c-0.48,1.31-0.71,2.64-0.71,4c0,1.51,0.17,2.99,0.53,4.45c0.36,1.45,0.95,2.76,1.76,3.91
		c0.81,1.16,1.91,2.1,3.31,2.84C283.43,956.17,285.18,956.56,287.28,956.6z"/>
	<path class="st0" d="M349.88,927.17c2.72,0,5.21,0.47,7.43,1.4c2.22,0.94,4.13,2.2,5.71,3.79c1.57,1.6,2.79,3.41,3.66,5.46
		s1.29,4.17,1.29,6.36c0,2.42-0.38,4.76-1.14,6.98c-0.77,2.23-1.9,4.19-3.42,5.88c-1.5,1.69-3.39,3.04-5.64,4.03
		c-2.24,1-4.88,1.49-7.89,1.49c-3.01,0-5.65-0.51-7.9-1.52c-2.24-1.02-4.13-2.38-5.63-4.09c-1.51-1.72-2.63-3.67-3.38-5.88
		c-0.74-2.22-1.11-4.49-1.11-6.84c0-2.11,0.41-4.18,1.25-6.21c0.84-2.02,2.02-3.84,3.56-5.43c1.53-1.59,3.41-2.88,5.64-3.88
		C344.53,927.73,347.06,927.21,349.88,927.17z M349.88,956.6c1.86,0,3.5-0.35,4.88-1.05c1.39-0.69,2.52-1.61,3.42-2.75
		c0.88-1.13,1.54-2.45,1.97-3.94c0.43-1.49,0.64-3.05,0.64-4.68c0-1.4-0.24-2.76-0.71-4.09c-0.48-1.33-1.19-2.52-2.12-3.56
		c-0.93-1.03-2.06-1.86-3.41-2.47s-2.89-0.92-4.67-0.92s-3.33,0.32-4.67,0.98s-2.46,1.51-3.38,2.57c-0.91,1.06-1.6,2.24-2.08,3.56
		c-0.48,1.31-0.71,2.64-0.71,4c0,1.51,0.17,2.99,0.53,4.45c0.36,1.45,0.95,2.76,1.76,3.91c0.81,1.16,1.91,2.1,3.31,2.84
		C346.02,956.17,347.78,956.56,349.88,956.6z"/>
	<path class="st0" d="M411.48,927.71c2.53,0,4.65,0.51,6.35,1.52s2.98,2.29,3.85,3.82c0.86,1.53,1.29,3.19,1.29,4.98
		c0,1.79-0.43,3.47-1.29,5.05c-0.86,1.57-2.17,2.91-3.92,4.03c-1.75,1.12-3.94,1.75-6.57,1.91h-9.33v13.07h-7.18v-34.39H411.48z
		 M411.19,943.05c1.05,0,1.92-0.23,2.62-0.72c0.69-0.48,1.21-1.07,1.57-1.74c0.36-0.68,0.55-1.42,0.58-2.22
		c0.02-0.8-0.14-1.54-0.47-2.22c-0.33-0.68-0.84-1.25-1.5-1.72c-0.67-0.46-1.51-0.71-2.51-0.75h-9.62v9.37H411.19z"/>
	<path class="st0" d="M456.77,933.68v8.06h15.5v5.97h-15.5v8.41h18.31v5.97h-25.49v-34.39h25.49v5.97H456.77z"/>
	<path class="st0" d="M526.34,946.69c0.91,0.87,1.59,1.83,2.04,2.86c0.46,1.03,0.69,2.25,0.69,3.64v8.89h-7.18v-8.89
		c0-1.07-0.45-2.05-1.33-2.92c-0.88-0.87-2.04-1.32-3.49-1.32h-7.67v13.13h-7.18v-34.39h16.8c1.77,0,3.37,0.27,4.78,0.81
		s2.61,1.27,3.63,2.18c1,0.92,1.76,2.01,2.29,3.28s0.79,2.62,0.79,4.06c0,1.87-0.36,3.53-1.08,4.99
		C528.72,944.47,527.68,945.69,526.34,946.69z M509.41,942.99h9.25c0.96,0,1.75-0.15,2.37-0.45c0.62-0.29,1.1-0.68,1.43-1.16
		c0.33-0.48,0.56-1.02,0.68-1.62c0.12-0.6,0.18-1.17,0.18-1.73c0-1.15-0.32-2.17-0.97-3.04c-0.64-0.87-1.75-1.32-3.34-1.32h-9.61
		V942.99z"/>
	<path class="st0" d="M582.84,962.09l-3.31-8.42h-12.42l-3.22,8.42h-7.54l13.21-34.39h7.54l13.28,34.39H582.84z M569.42,947.71h7.82
		l-3.88-10.21L569.42,947.71z"/>
	<path class="st0" d="M641.43,933.68H630.3v28.41h-7.18v-28.41h-11.13v-5.97h29.44V933.68z"/>
	<path class="st0" d="M675.8,927.71v34.44h-7.18v-34.44H675.8z"/>
	<path class="st0" d="M736.04,927.71l-13.28,34.39h-7.54L702,927.71h7.54l9.47,24.59l9.47-24.59H736.04z"/>
	<path class="st0" d="M778.82,962.09l-3.31-8.42H763.1l-3.22,8.42h-7.54l13.21-34.39h7.54l13.28,34.39H778.82z M765.4,947.71h7.82
		l-3.88-10.21L765.4,947.71z"/>
	<path class="st0" d="M813.37,946.38c0-2.15,1.79-3.76,4.31-3.76s4.17,1.55,4.24,3.76c0,2.15-1.72,3.76-4.31,3.76
		C815.09,950.15,813.29,948.53,813.37,946.38z"/>
</g>
<g>
	<path class="st0" d="M479.26,446.24c0.12-19.14-11.93-30.56-22.06-43.53c-13.82-17.69-21.81-35.96-8.72-55.12
		c0.77-1.12,0.79-2.62-0.03-3.71c-6.79-9.12-13.29-16.82-18.34-25.37c-14.17-24.01-17.21-26.52-44.76-20.54
		c-11.24,2.44-22.6,7.98-31.94,14.79c-27.77,20.26-27.92,21.12-55.56,5.27c-0.96-0.55-2.16-0.57-3.12-0.04
		c-32.75,18.1-62.41,40.1-80.72,74.18c-2.63,4.9-2.72,13.84,0.07,18.47c8.01,13.28,19.11,24.7,27.15,37.97
		c12.25,20.21,29.69,30.99,52.8,32.53c6.84,0.46,13.73,0.56,20.62,0.41v59.24l-58.43,32.81v77.06
		c-8.85,2.25-15.42,10.26-15.42,19.79c0,11.27,9.17,20.44,20.44,20.44c11.27,0,20.44-9.17,20.44-20.44c0-9.6-6.67-17.66-15.61-19.84
		v-71.25l58.43-32.81v-65.43c1.8-0.11,3.59-0.21,5.38-0.36c27.88-2.35,55.76-13.96,83.03,4.96c6.99,4.85,18.67,4.17,28.17,4.01
		c1.61-0.03,3.22-0.09,4.84-0.13v51.45l-58.43,39.38v114.39c-8.9,2.21-15.52,10.25-15.52,19.82c0,11.27,9.17,20.44,20.44,20.44
		s20.44-9.17,20.44-20.44c0-9.57-6.62-17.6-15.52-19.82V585.68l58.43-39.38v-56.95c16.41-0.55,32.81-1.49,49.22-2.29
		c1.56-4.68,1.63-4.89,3.19-9.57c-4.74-3.93-9.48-7.87-13.79-12.23C488.57,459.4,479.23,452.59,479.26,446.24z M271.83,670.47
		c0,5.84-4.75,10.6-10.6,10.6c-5.84,0-10.6-4.76-10.6-10.6c0-5.84,4.75-10.6,10.6-10.6C267.07,659.87,271.83,664.62,271.83,670.47z
		 M402.99,714.65c0,5.84-4.75,10.6-10.6,10.6s-10.6-4.76-10.6-10.6c0-5.84,4.75-10.6,10.6-10.6S402.99,708.81,402.99,714.65z"/>
	<path class="st0" d="M716.89,442.8c8-2.53,17.06-3.75,23.57-8.43c8.68-6.24,19.75-14.13,22.12-23.29
		c9.62-37.16,8.17-72.34-30.01-94.78c-1.64-0.96-3.05-2.26-4.23-3.75c-11.05-13.98-25.71-14.84-39.09-5.98
		c-22.3,14.76-44.41,30.43-63.99,48.52c-21.24,19.63-19.23,29.91,0.72,51c3.95,4.17,5.89,14.02,3.78,19.26
		c-3.42,8.5-10,16.41-16.98,22.64c-7.77,6.92-16.25,13.04-25.45,19.7c-4.5,3.26-2.83,10.35,2.66,11.25
		c8.71,1.42,16.71,2.78,24.09,5.69c13.36,5.27,26.62,7.12,39.83,6.8v91.93l58.43,39.38v34.88c-9.34,1.88-16.39,10.15-16.39,20.04
		c0,11.27,9.17,20.44,20.44,20.44c11.27,0,20.44-9.17,20.44-20.44c0-9.26-6.19-17.09-14.64-19.59V617.5l-58.43-39.38v-87.31
		c10.32-1.03,20.62-3.2,30.93-5.94c8.35-2.22,12.64-7.26,8.46-17.59C698.09,454.81,704.52,446.71,716.89,442.8z M726.97,677.65
		c0,5.84-4.75,10.6-10.6,10.6c-5.84,0-10.6-4.76-10.6-10.6s4.75-10.6,10.6-10.6C722.21,667.05,726.97,671.81,726.97,677.65z"/>
	<path class="st0" d="M840.47,264.77c-1.84-4.33-6.29-9.03-10.6-10.56c-10.12-3.59-20.78-6.56-31.42-7.41
		c-6.09-0.49-14.51,1.81-18.51,6.04c-9.78,10.35-18.78,21.44-28.55,33.46c-6.52,8.02-5.5,19.79,2.31,26.55
		c3.54,3.06,7.09,5.94,10.89,8.46c28.97,19.27,32.68,30.22,22.15,63.31c-4.31,13.53-8.51,27.71-8.9,41.7
		c-0.56,20.06,12.94,30.48,32.6,28.69c6.05-0.55,11.45-1.86,16.26-3.87v33.87l-58.43,32.81v24.42c-9.12,2.05-15.96,10.2-15.96,19.93
		c0,11.27,9.17,20.44,20.44,20.44c11.27,0,20.44-9.17,20.44-20.44c0-9.41-6.4-17.34-15.08-19.7v-18.88l58.43-32.81v-45.43
		c7.06-5.67,12.16-13.77,15.36-24.35C868.11,367.4,861.97,315.48,840.47,264.77z M783.35,562.18c0,5.84-4.75,10.6-10.6,10.6
		c-5.84,0-10.6-4.76-10.6-10.6c0-5.84,4.75-10.6,10.6-10.6C778.6,551.58,783.35,556.34,783.35,562.18z"/>
	<path class="st0" d="M588.92,71.16c1.96-0.01,3.96,2.23,5.9,3.48c18.51,11.89,36.46,24.78,55.67,35.41
		c18.29,10.12,25.87,22.9,22.82,42.78c-0.22,1.43,0.67,2.82,2.08,3.16c24.42,5.85,47.47,11.02,70.22,17.24
		c4.87,1.33,9.46,6.23,12.65,10.59c5.21,7.15,9.68,14.97,13.51,22.97c3.95,8.23,7.07,16.85,10.96,26.69
		c0.66,1.68,2.72,2.23,4.21,1.21c11.37-7.74,24.09,0.61,38.91,6.81c2.26,0.94,4.56-1.36,3.61-3.61
		c-19.65-46.39-50.12-79.8-83.78-110.92c-10.2-9.43-20.2-16.74-35.49-18.43c-9.24-1.02-18.1-5.47-26.97-9.87
		c1.13-4.8,0.95-4.04,2.07-8.84c2.88,0,3.83-3.86,1.28-5.22c-47.32-25.22-94.86-38.71-148.05-47.14c-2.77-0.44-4.37,3.04-2.22,4.84
		C553.74,56.87,567,71.27,588.92,71.16z"/>
	<path class="st0" d="M682.37,187.15c-8.81-0.86-17.81,0.15-27.61,1.25c-8.45,0.95-14.86,8.1-14.86,16.61v78.65
		c0,13.5,15.17,21.43,26.24,13.72c23.74-16.53,47.73-33.23,72.21-50.26c7.68-5.35,9.3-15.84,3.97-23.53c-0.69-1-1.24-1.99-1.61-3.05
		C730.69,192.63,706.29,189.48,682.37,187.15z"/>
	<path class="st0" d="M216.93,575.18v-82.1l-38.74-39.38v-48.46c4.81-0.44,9.62-0.9,14.42-1.44c2.85-0.32,6.82-2.96,7.81-5.48
		c5.07-13.05,7.92-17.09,14.93-32.48c1.16-2.55,11.49-16.75,17.46-21.03c47.47-34.03,43.85-30.74,23.7-60.77
		c-3.08-7.5-5.49-13.58-8.04-19.59c-19.13-45.11-10.49-81.38,27.18-112.44c12.05-9.94,24.97-18.84,36.86-28.95
		c14.49-12.33,28.73-25.17,31.61-46.48c-136.92,51.91-229.51,205.63-199.54,331.45c7.88-0.66,15.82-1.26,23.78-1.92v51.63
		l38.74,39.38v78.07c-8.9,2.21-15.52,10.25-15.52,19.82c0,11.27,9.17,20.44,20.44,20.44s20.44-9.17,20.44-20.44
		C232.45,585.42,225.83,577.39,216.93,575.18z M212.01,605.59c-5.84,0-10.6-4.76-10.6-10.6c0-5.84,4.75-10.6,10.6-10.6
		s10.6,4.76,10.6,10.6C222.61,600.84,217.85,605.59,212.01,605.59z"/>
	<path class="st0" d="M604.04,725.87v-72.81l-58.43-32.81v-166.6c10.48,0.04,21.3-6.01,30.19-18.53
		c12.63-17.78,15.71-39.04,16.35-61.33c0.28-9.77,2.75-19.34,6.94-28.17c7.7-16.19,13.16-30.58,0.91-48.71
		c-5.17-7.66-2.21-22.77,0.81-33.43c3.18-11.24,11.83-20.82,16.25-31.87c2.87-7.17,3.87-15.09,5.25-23.02
		c0.49-2.83-1.48-5.51-4.33-5.86c-23.9-2.89-39.69-8.72-50.94-19.97c-4.55-4.55,2.26-11.48,7.04-7.17
		c4.37,3.94,8.66,7.71,13.03,11.4c10.97,9.24,22.16,7.95,32.25-1.81c9.03-8.73,18.16-17.43,26.46-26.83
		c14.9-16.89,12.89-25.27-6.43-35.85c-7.27-3.98-13.51-9.87-20.07-15.08c-8.91-7.08-16.97-15.56-26.69-21.22
		c-11.38-6.63-26.96-9.82-33.94,3.16c-12.85,23.89-32.8,26.93-56.08,27.24c-14.86,0.2-32.06-1.53-44.02,5.1
		c-22.22,12.33-43.75,7.76-64.05,1.86c-19.86-5.77-38.23-5.4-53.09,5.88c-23.14,17.55-44.54,37.8-64.54,58.92
		c-18.13,19.16-19.28,43.79-9.78,67.27c9.31,23.02,29.95,31.45,53.64,33.1c17.4,1.21,33.52,0.06,50.3-8.32
		c33.96-16.96,57.44-6.85,72.52,27.21c1.12,2.54,2.92,5.54,5.23,6.68c23.21,11.57,30.73,33.78,39.49,55.67
		c8.12,20.27,16.65,40.47,26.28,60.07c5.52,11.24,12.99,18.5,21.17,21.73v174.23l58.43,32.81v67.05
		c-8.9,2.21-15.52,10.25-15.52,19.82c0,11.27,9.17,20.44,20.44,20.44s20.44-9.17,20.44-20.44
		C619.55,736.11,612.93,728.08,604.04,725.87z M599.11,756.28c-5.84,0-10.6-4.76-10.6-10.6c0-5.84,4.75-10.6,10.6-10.6
		c5.84,0,10.6,4.76,10.6,10.6C609.71,751.53,604.96,756.28,599.11,756.28z"/>
</g>
</svg>
