<?xml version="1.0" encoding="utf-8"?>
<!-- Generator: Adobe Illustrator 27.8.1, SVG Export Plug-In . SVG Version: 6.00 Build 0)  -->
<svg version="1.1" id="Capa_1" xmlns="http://www.w3.org/2000/svg" xmlns:xlink="http://www.w3.org/1999/xlink" x="0px" y="0px"
	 viewBox="0 0 486.89 177.33" style="enable-background:new 0 0 486.89 177.33;" xml:space="preserve">
<style type="text/css">
	.st0{fill:#13110C;}
</style>
<g>
	<g>
		<g>
			<g>
				<g>
					<path class="st0" d="M21.49,72.03c0-0.43,0.11-0.78,0.34-1.03c0.23-0.26,0.57-0.39,1.02-0.39l19.74-0.02
						c1.42,0,2.76,0.19,4.02,0.58c1.26,0.39,2.41,0.93,3.46,1.62c1.05,0.69,2,1.51,2.84,2.47c0.84,0.96,1.56,1.99,2.15,3.1
						c0.59,1.11,1.04,2.28,1.35,3.51c0.31,1.23,0.47,2.47,0.47,3.72c0,1.85-0.33,3.67-1,5.44c-0.67,1.77-1.62,3.35-2.85,4.73
						c-1.23,1.38-2.72,2.5-4.45,3.36c-1.73,0.86-3.64,1.3-5.75,1.32l-9.36,0.01l0.01,14.71c0,0.89-0.47,1.33-1.42,1.33l-9.18,0.01
						c-0.41,0-0.74-0.11-0.99-0.32c-0.25-0.22-0.37-0.55-0.37-1L21.49,72.03z M44.77,85.55c0-0.62-0.11-1.24-0.33-1.85
						c-0.22-0.62-0.53-1.17-0.94-1.65c-0.41-0.48-0.91-0.88-1.5-1.19s-1.25-0.46-1.99-0.46l-6.55,0.01l0.01,10.32l6.55-0.01
						c0.74,0,1.41-0.15,2.01-0.45c0.6-0.3,1.1-0.69,1.5-1.16s0.71-1.02,0.93-1.64C44.66,86.84,44.77,86.2,44.77,85.55z"/>
				</g>
				<g>
					<path class="st0" d="M68.58,71.99c0-0.43,0.11-0.78,0.34-1.03c0.23-0.26,0.57-0.39,1.02-0.39l19.96-0.02
						c2.12,0,4.11,0.39,5.96,1.18c1.85,0.79,3.47,1.87,4.85,3.22c1.38,1.36,2.47,2.95,3.26,4.77c0.79,1.82,1.19,3.76,1.19,5.82
						c0,1.4-0.19,2.73-0.57,4c-0.38,1.27-0.91,2.45-1.59,3.55c-0.68,1.1-1.49,2.1-2.42,3c-0.94,0.9-1.96,1.67-3.07,2.3l7.95,14.95
						c0.14,0.29,0.33,0.63,0.56,1.02c0.23,0.39,0.34,0.73,0.34,1.02c0,0.33-0.11,0.58-0.32,0.76c-0.22,0.18-0.51,0.26-0.88,0.26
						l-10.6,0.01c-0.35,0-0.66-0.1-0.94-0.31c-0.28-0.21-0.46-0.48-0.54-0.83l-7.52-14.11l-5,0l0.01,13.93
						c0,0.89-0.47,1.33-1.42,1.33l-9.18,0.01c-0.41,0-0.74-0.11-0.99-0.32c-0.25-0.22-0.37-0.55-0.37-1L68.58,71.99z M92.78,85.69
						c0-0.62-0.11-1.24-0.34-1.85c-0.23-0.62-0.55-1.18-0.96-1.7c-0.41-0.51-0.91-0.95-1.48-1.3c-0.58-0.35-1.22-0.58-1.92-0.68
						c-0.58-0.04-1.12-0.08-1.62-0.11c-0.5-0.03-1.06-0.05-1.65-0.05l-4.26,0l0.01,11.34l5.68-0.01c0.37,0,0.7-0.01,0.99-0.03
						c0.29-0.02,0.61-0.05,0.96-0.09c0.72-0.08,1.37-0.29,1.95-0.63c0.58-0.34,1.06-0.76,1.45-1.27c0.39-0.5,0.69-1.07,0.89-1.7
						C92.68,86.99,92.78,86.35,92.78,85.69z"/>
				</g>
				<g>
					<path class="st0" d="M114.81,93.51c0-2.18,0.27-4.28,0.83-6.29c0.55-2.01,1.35-3.89,2.38-5.66c1.03-1.76,2.26-3.36,3.69-4.81
						c1.43-1.44,3.02-2.67,4.77-3.7c1.75-1.02,3.63-1.82,5.64-2.38c2.01-0.57,4.11-0.85,6.29-0.85c2.16,0,4.26,0.28,6.28,0.84
						c2.02,0.57,3.91,1.36,5.66,2.37c1.75,1.02,3.35,2.25,4.8,3.69c1.44,1.44,2.68,3.04,3.7,4.8c1.02,1.76,1.82,3.64,2.39,5.65
						c0.57,2.01,0.85,4.1,0.86,6.29c0,2.18-0.28,4.28-0.84,6.29c-0.57,2.01-1.36,3.88-2.38,5.62c-1.02,1.74-2.25,3.33-3.69,4.76
						c-1.44,1.43-3.04,2.66-4.79,3.7c-1.75,1.03-3.64,1.83-5.66,2.38c-2.02,0.56-4.11,0.84-6.27,0.84c-2.19,0-4.28-0.27-6.29-0.83
						c-2.01-0.55-3.89-1.34-5.64-2.37c-1.75-1.03-3.35-2.26-4.78-3.69s-2.67-3.02-3.7-4.76c-1.03-1.74-1.83-3.61-2.39-5.62
						C115.1,97.79,114.82,95.7,114.81,93.51z M126.77,93.47c0,1.71,0.29,3.31,0.87,4.79c0.58,1.48,1.39,2.77,2.43,3.88
						c1.04,1.1,2.27,1.97,3.69,2.59c1.42,0.63,2.98,0.94,4.69,0.94c1.71,0,3.28-0.32,4.7-0.95c1.43-0.63,2.66-1.5,3.7-2.6
						c1.04-1.1,1.84-2.4,2.42-3.88c0.57-1.48,0.86-3.08,0.86-4.79c0-1.69-0.29-3.28-0.87-4.77c-0.58-1.49-1.39-2.79-2.43-3.91
						c-1.04-1.11-2.28-1.99-3.71-2.62c-1.43-0.64-3-0.96-4.71-0.95c-1.71,0-3.27,0.32-4.69,0.96c-1.42,0.64-2.65,1.52-3.68,2.63
						c-1.04,1.11-1.84,2.42-2.42,3.91C127.06,90.19,126.77,91.78,126.77,93.47z"/>
				</g>
				<g>
					<path class="st0" d="M177.11,71.83c0.04-0.37,0.19-0.69,0.43-0.96c0.25-0.27,0.6-0.4,1.05-0.4l10.69-0.01
						c0.76,0,1.26,0.39,1.48,1.17l8.43,28.05l8.44-28.06c0.29-0.78,0.81-1.17,1.57-1.18l10.57-0.01c0.37,0,0.71,0.13,1,0.39
						c0.3,0.26,0.47,0.58,0.51,0.97c0.73,7.25,1.47,14.44,2.23,21.58c0.76,7.14,1.5,14.33,2.23,21.58l0,0.15
						c0,0.8-0.45,1.21-1.36,1.21l-8.74,0.01c-0.95,0-1.44-0.45-1.48-1.36l-2.71-23.88l-6.93,24.04c-0.04,0.21-0.19,0.45-0.45,0.74
						c-0.26,0.29-0.51,0.43-0.76,0.43l-8.13,0.01c-0.25,0-0.51-0.14-0.79-0.42c-0.28-0.28-0.43-0.53-0.45-0.76l-6.97-23.97
						l-2.67,23.82c-0.04,0.91-0.54,1.36-1.51,1.36l-8.74,0.01c-0.89,0-1.33-0.45-1.33-1.36L177.11,71.83z"/>
				</g>
				<g>
					<path class="st0" d="M238.84,71.84c0-0.43,0.12-0.78,0.35-1.03c0.24-0.26,0.57-0.39,1-0.39l30.65-0.03
						c0.45,0,0.8,0.13,1.05,0.4c0.25,0.27,0.37,0.63,0.37,1.08l0.01,7.64c0,0.35-0.12,0.68-0.37,1c-0.25,0.32-0.61,0.48-1.08,0.48
						L250.8,81l0.01,7.66l15.45-0.01c0.39,0,0.72,0.09,0.97,0.28c0.26,0.19,0.39,0.49,0.39,0.93l0.01,6.67
						c0,0.29-0.11,0.57-0.34,0.83c-0.23,0.27-0.56,0.4-0.99,0.4l-15.48,0.01l0.01,7.91l20.76-0.02c0.93,0,1.39,0.47,1.39,1.42
						l0.01,7.76c0,0.21-0.08,0.39-0.25,0.55c-0.08,0.58-0.5,0.86-1.27,0.86l-31.24,0.03c-0.41,0-0.74-0.11-0.99-0.32
						c-0.25-0.22-0.37-0.55-0.37-1L238.84,71.84z"/>
				</g>
				<g>
					<path class="st0" d="M337.41,71.75c0-0.43,0.12-0.78,0.35-1.03c0.24-0.26,0.57-0.39,1-0.39l30.65-0.03
						c0.45,0,0.8,0.13,1.05,0.4c0.25,0.27,0.37,0.63,0.37,1.08l0.01,7.64c0,0.35-0.12,0.68-0.37,1c-0.25,0.32-0.61,0.48-1.08,0.48
						l-20.02,0.02l0.01,7.66l15.45-0.01c0.39,0,0.72,0.09,0.97,0.28s0.39,0.49,0.39,0.93l0.01,6.67c0,0.29-0.11,0.57-0.34,0.83
						c-0.23,0.27-0.56,0.4-0.99,0.4l-15.48,0.01l0.01,7.91l20.76-0.02c0.93,0,1.39,0.47,1.39,1.42l0.01,7.76
						c0,0.21-0.08,0.39-0.25,0.55c-0.08,0.58-0.5,0.86-1.27,0.86l-31.24,0.03c-0.41,0-0.74-0.11-0.99-0.32
						c-0.25-0.22-0.37-0.55-0.37-1L337.41,71.75z"/>
				</g>
				<g>
					<path class="st0" d="M395.89,97.86c0,1.53,0.21,2.82,0.64,3.88c0.42,1.06,0.98,1.93,1.67,2.6s1.5,1.16,2.42,1.47
						c0.92,0.31,1.87,0.46,2.86,0.46c1.03,0,2.01-0.18,2.92-0.54c0.92-0.36,1.72-0.9,2.41-1.61c0.69-0.71,1.24-1.59,1.64-2.64
						c0.4-1.05,0.6-2.26,0.6-3.62l-0.02-26.22c0-0.37,0.13-0.69,0.39-0.96s0.6-0.4,1.03-0.4l9.02-0.01c0.47,0,0.84,0.14,1.11,0.42
						c0.27,0.28,0.4,0.59,0.4,0.94l0.02,26.04c0,3.6-0.52,6.63-1.58,9.08c-1.06,2.45-2.48,4.43-4.27,5.92
						c-1.79,1.49-3.87,2.57-6.22,3.22c-2.36,0.65-4.83,0.98-7.43,0.98c-2.6,0-5.08-0.33-7.45-1c-2.37-0.67-4.45-1.76-6.24-3.27
						c-1.79-1.51-3.22-3.49-4.28-5.93c-1.06-2.44-1.6-5.43-1.6-8.97l-0.02-26.04c0-0.35,0.12-0.66,0.35-0.94
						c0.24-0.28,0.53-0.42,0.88-0.42l9.24-0.01c0.31,0,0.63,0.13,0.97,0.39c0.34,0.26,0.51,0.58,0.51,0.97L395.89,97.86z"/>
				</g>
				<g>
					<path class="st0" d="M442.7,101.29c0.35,0.29,0.8,0.67,1.34,1.16c0.55,0.48,1.17,0.96,1.87,1.43c1.05,0.7,2.09,1.24,3.12,1.63
						c1.03,0.39,2.11,0.59,3.25,0.58c1.05,0,1.93-0.12,2.64-0.36s1.27-0.55,1.68-0.94c0.41-0.39,0.7-0.84,0.88-1.36
						c0.17-0.51,0.26-1.06,0.26-1.64c0-0.64-0.24-1.21-0.73-1.71c-0.48-0.5-1.08-0.95-1.78-1.34c-0.7-0.39-1.43-0.72-2.19-1
						c-0.76-0.28-1.42-0.51-1.98-0.69c-2.47-0.86-4.64-1.79-6.49-2.79c-1.85-1-3.4-2.11-4.64-3.33c-1.24-1.22-2.16-2.57-2.78-4.04
						c-0.62-1.47-0.93-3.11-0.93-4.92c0-1.91,0.38-3.65,1.15-5.22c0.77-1.56,1.87-2.9,3.3-4.02c1.43-1.11,3.15-1.97,5.17-2.58
						c2.02-0.61,4.27-0.91,6.77-0.92c1.87,0,3.67,0.21,5.39,0.63c1.72,0.42,3.42,1.09,5.08,2.02c0.7,0.41,1.36,0.84,1.99,1.28
						s1.18,0.87,1.65,1.28c0.47,0.41,0.85,0.8,1.13,1.17c0.28,0.37,0.42,0.69,0.42,0.96s-0.07,0.51-0.2,0.74
						c-0.13,0.23-0.33,0.48-0.6,0.77l-4.72,5.04c-0.35,0.35-0.7,0.53-1.05,0.53c-0.29,0-0.55-0.08-0.79-0.25
						c-0.24-0.16-0.5-0.37-0.79-0.62l-0.28-0.25c-0.41-0.35-0.87-0.71-1.38-1.08c-0.5-0.37-1.05-0.7-1.62-1
						c-0.58-0.3-1.19-0.54-1.82-0.74c-0.64-0.19-1.29-0.29-1.95-0.29c-0.68,0-1.32,0.06-1.92,0.17c-0.6,0.11-1.12,0.29-1.57,0.54
						c-0.45,0.25-0.81,0.57-1.08,0.97c-0.27,0.4-0.4,0.89-0.4,1.47c0,0.58,0.14,1.08,0.43,1.5c0.29,0.42,0.72,0.81,1.3,1.17
						s1.29,0.7,2.15,1.02c0.85,0.32,1.85,0.66,2.98,1.03c2.18,0.72,4.2,1.47,6.04,2.27c1.84,0.79,3.44,1.73,4.78,2.81
						c1.34,1.08,2.39,2.37,3.14,3.87c0.75,1.5,1.13,3.33,1.13,5.47c0,2.27-0.46,4.32-1.38,6.16c-0.93,1.84-2.2,3.42-3.81,4.71
						c-1.62,1.3-3.52,2.3-5.7,3.02c-2.18,0.71-4.53,1.07-7.04,1.07c-2.37,0-4.7-0.42-6.98-1.26c-2.29-0.84-4.42-1.98-6.4-3.4
						c-0.82-0.6-1.52-1.19-2.09-1.76c-0.57-0.58-1.02-1.04-1.34-1.39l-0.09-0.09c-0.02-0.04-0.04-0.07-0.06-0.08
						c-0.02-0.01-0.04-0.03-0.06-0.05c-0.02-0.04-0.04-0.07-0.06-0.08c-0.02-0.01-0.04-0.03-0.06-0.05
						c-0.47-0.52-0.71-0.93-0.71-1.24c0-0.35,0.24-0.74,0.71-1.18l5.34-5.1c0.43-0.31,0.78-0.46,1.05-0.46
						c0.19,0,0.38,0.06,0.59,0.18C442.16,100.86,442.41,101.04,442.7,101.29z"/>
				</g>
				<g>
					<g>
						<path class="st0" d="M314.5,67.86c2.8-4.17,3.35-8.6,1.85-13.38c-2.39,1.32-3.6,3.5-4.58,5.93c-0.07-0.09-0.13-0.14-0.14-0.19
							c-1.22-6.51-4.32-12.04-8.77-16.88c-2.46-2.67-5.19-5.02-8.11-7.23c4.13,6.95,6.13,14.27,3.98,22.37
							c-1.17-1.86-2.63-3.42-4.68-4.58c-0.25,0.97-0.62,1.92-0.73,2.91c-0.16,1.51-0.14,3.04-0.21,4.56
							c-0.01,0.17-0.12,0.34-0.18,0.51c-0.13-0.1-0.28-0.18-0.4-0.3c-1.65-1.68-1.98-3.9-2.53-6.04c-0.46-1.79-0.94-3.58-1.49-5.34
							c-0.62-1.99-2.08-3.03-4.09-3.38c-0.4-0.07-0.8-0.16-1.2-0.31c3.73-0.9,7.38-0.95,10.89,1.04c-0.1-0.17-0.19-0.35-0.29-0.52
							c-1.64-2.77-3.22-5.56-4.33-8.59c-1.15-3.11-1.82-6.31-1.66-9.65c0.28-5.67,2.22-10.58,6.59-14.37
							c2.27-1.97,5.01-2.92,7.92-3.57c-5.24,2.56-7.99,6.55-7.05,12.51c0.52,3.3,1.98,6.12,5.05,8c0.2-1.02,0.35-1.94,0.55-2.86
							c0.25-1.13,0.47-2.28,0.8-3.39c0.64-2.15,2.14-3.57,4.18-4.58c-0.21,0.65-0.45,1.22-0.59,1.81c-0.38,1.63-0.14,3.25,0.24,4.85
							c1.19,4.96,3.27,9.57,5.58,14.08c0.51,0.98,1.03,1.96,1.54,2.94c0.09,0.17,0.2,0.33,0.39,0.65c0.67-4.82,2.39-8.86,6.79-11.48
							c-0.07,0.23-0.09,0.31-0.12,0.38c-1.38,2.68-1.42,5.48-0.74,8.33c0.52,2.19,1.18,4.35,1.61,6.55
							c0.75,3.87,0.81,7.77-0.26,11.61c-0.88,3.15-2.66,5.66-5.47,7.39C314.74,67.72,314.62,67.79,314.5,67.86z"/>
					</g>
					<g>
						<path class="st0" d="M305.85,69.68c6.54,0,13.08,0,19.62,0.01c0.36,0,0.73,0.04,1.06,0.17c0.79,0.31,1,0.94,0.6,1.69
							c-1.35,2.53-2.72,5.05-4.04,7.59c-0.39,0.76-0.95,1.1-1.77,1.11c-0.2,0-0.4,0-0.6,0c-7.67,0-15.33,0-23,0
							c-2.4,0-4.79,0.01-7.19,0.03c-0.9,0.01-1.54-0.29-1.97-1.14c-1.34-2.6-2.73-5.16-4.1-7.74c-0.25-0.47-0.19-0.94,0.26-1.25
							c0.32-0.22,0.72-0.31,1.09-0.44c0.11-0.04,0.25-0.01,0.38-0.01c6.56,0,13.12,0,19.67,0C305.85,69.7,305.85,69.69,305.85,69.68
							z"/>
					</g>
					<g>
						<path class="st0" d="M313.42,85.83c0,0.96,0.06,1.81-0.01,2.65c-0.47,5.75-0.99,11.5-1.43,17.25
							c-0.21,2.8-0.26,5.62-0.38,8.43c-0.02,0.34-0.03,0.69-0.12,1.02c-0.18,0.72-0.73,1.12-1.46,1.12c-1.11,0-2.21,0-3.39,0
							c0-0.24,0-0.44,0-0.63c0-7.5,0-15.01-0.01-22.51c0-0.37,0.1-0.64,0.37-0.91C309.12,90.15,311.23,88.03,313.42,85.83z"/>
					</g>
					<g>
						<path class="st0" d="M304.38,116.31c-1.16,0-2.26,0.02-3.37-0.01c-0.54-0.01-1.12-0.72-1.18-1.46
							c-0.08-0.9-0.05-1.81-0.11-2.72c-0.23-3.51-0.46-7.03-0.73-10.54c-0.36-4.74-0.76-9.48-1.13-14.22c-0.03-0.32,0-0.65,0-1.06
							c0.17,0.14,0.28,0.22,0.37,0.31c1.95,1.95,3.91,3.9,5.85,5.87c0.17,0.17,0.31,0.46,0.31,0.7c0.02,7.56,0.01,15.12,0.01,22.68
							C304.41,115.97,304.39,116.09,304.38,116.31z"/>
					</g>
					<g>
						<path class="st0" d="M298.98,84.01c4.32,0,8.63,0,12.85,0c-2.13,2.13-4.3,4.3-6.42,6.42
							C303.32,88.35,301.16,86.19,298.98,84.01z"/>
					</g>
				</g>
			</g>
		</g>
	</g>
</g>
<g>
	<g>
		<path class="st0" d="M80.31,142.82v2.1h-3.31v8.86h-2.47v-8.86h-3.31v-2.1H80.31z"/>
	</g>
	<g>
		<path class="st0" d="M81.89,153.78v-10.96h7.4v2.07h-4.93v2.15h4.38v2.02h-4.38v2.64h5.3v2.07H81.89z"/>
	</g>
	<g>
		<path class="st0" d="M96.48,154.01c-1.78,0-3.14-0.5-4.07-1.49c-0.93-0.99-1.4-2.4-1.4-4.22c0-0.91,0.14-1.72,0.43-2.43
			c0.28-0.71,0.67-1.31,1.17-1.8c0.5-0.49,1.09-0.86,1.77-1.12c0.69-0.25,1.43-0.38,2.23-0.38c0.46,0,0.89,0.03,1.27,0.1
			c0.38,0.07,0.71,0.15,1,0.24c0.28,0.09,0.52,0.18,0.71,0.28c0.19,0.1,0.33,0.17,0.41,0.22l-0.71,1.99
			c-0.34-0.18-0.73-0.33-1.18-0.46c-0.45-0.13-0.96-0.19-1.53-0.19c-0.38,0-0.75,0.06-1.12,0.19c-0.36,0.13-0.69,0.33-0.97,0.61
			c-0.28,0.28-0.5,0.64-0.67,1.08c-0.17,0.44-0.25,0.98-0.25,1.61c0,0.51,0.05,0.98,0.17,1.42c0.11,0.44,0.29,0.81,0.54,1.13
			s0.57,0.57,0.97,0.75c0.4,0.18,0.89,0.28,1.46,0.28c0.36,0,0.68-0.02,0.97-0.06c0.28-0.04,0.54-0.09,0.76-0.15
			c0.22-0.06,0.42-0.12,0.59-0.2c0.17-0.07,0.32-0.14,0.46-0.21l0.68,1.98c-0.35,0.21-0.84,0.4-1.47,0.57
			C98.04,153.92,97.31,154.01,96.48,154.01z"/>
	</g>
	<g>
		<path class="st0" d="M109.08,153.78c-0.71-1.25-1.47-2.49-2.29-3.72c-0.82-1.22-1.7-2.38-2.63-3.46v7.18h-2.44v-10.96h2.01
			c0.35,0.35,0.73,0.77,1.15,1.28c0.42,0.51,0.85,1.05,1.29,1.62c0.44,0.57,0.87,1.17,1.3,1.79c0.43,0.62,0.84,1.21,1.22,1.78v-6.47
			h2.45v10.96H109.08z"/>
	</g>
	<g>
		<path class="st0" d="M124.12,148.3c0,0.94-0.14,1.76-0.42,2.48c-0.28,0.71-0.66,1.31-1.15,1.79c-0.49,0.48-1.06,0.84-1.73,1.08
			c-0.67,0.24-1.39,0.36-2.16,0.36c-0.75,0-1.46-0.12-2.12-0.36c-0.66-0.24-1.24-0.6-1.74-1.08c-0.5-0.48-0.89-1.08-1.17-1.79
			c-0.28-0.71-0.43-1.54-0.43-2.48c0-0.94,0.15-1.76,0.44-2.48c0.3-0.71,0.69-1.31,1.19-1.79c0.5-0.48,1.08-0.85,1.74-1.09
			c0.66-0.24,1.35-0.36,2.08-0.36c0.75,0,1.46,0.12,2.12,0.36c0.66,0.24,1.24,0.61,1.74,1.09c0.5,0.49,0.89,1.08,1.17,1.79
			C123.98,146.53,124.12,147.36,124.12,148.3z M115.76,148.3c0,0.54,0.07,1.02,0.2,1.46c0.13,0.43,0.32,0.8,0.57,1.12
			c0.25,0.31,0.55,0.55,0.91,0.72c0.36,0.17,0.77,0.25,1.23,0.25c0.45,0,0.86-0.08,1.23-0.25c0.36-0.17,0.67-0.41,0.92-0.72
			s0.44-0.68,0.57-1.12c0.13-0.43,0.2-0.92,0.2-1.46c0-0.54-0.07-1.03-0.2-1.46c-0.13-0.44-0.32-0.81-0.57-1.12
			c-0.25-0.31-0.55-0.55-0.92-0.72c-0.36-0.17-0.77-0.25-1.23-0.25c-0.46,0-0.88,0.09-1.23,0.26c-0.36,0.17-0.66,0.42-0.91,0.73
			c-0.25,0.31-0.44,0.69-0.57,1.12C115.82,147.29,115.76,147.77,115.76,148.3z"/>
	</g>
	<g>
		<path class="st0" d="M133.5,151.67v2.12h-7.32v-10.96h2.47v8.84H133.5z"/>
	</g>
	<g>
		<path class="st0" d="M145.21,148.3c0,0.94-0.14,1.76-0.42,2.48c-0.28,0.71-0.66,1.31-1.15,1.79c-0.49,0.48-1.06,0.84-1.73,1.08
			c-0.67,0.24-1.39,0.36-2.16,0.36c-0.75,0-1.46-0.12-2.12-0.36c-0.66-0.24-1.24-0.6-1.74-1.08c-0.5-0.48-0.89-1.08-1.17-1.79
			c-0.28-0.71-0.43-1.54-0.43-2.48c0-0.94,0.15-1.76,0.44-2.48c0.3-0.71,0.69-1.31,1.19-1.79c0.5-0.48,1.08-0.85,1.74-1.09
			c0.66-0.24,1.35-0.36,2.08-0.36c0.75,0,1.46,0.12,2.12,0.36c0.66,0.24,1.24,0.61,1.74,1.09c0.5,0.49,0.89,1.08,1.17,1.79
			C145.06,146.53,145.21,147.36,145.21,148.3z M136.84,148.3c0,0.54,0.07,1.02,0.2,1.46c0.13,0.43,0.32,0.8,0.57,1.12
			c0.25,0.31,0.55,0.55,0.91,0.72c0.36,0.17,0.77,0.25,1.23,0.25c0.45,0,0.86-0.08,1.23-0.25c0.36-0.17,0.67-0.41,0.92-0.72
			s0.44-0.68,0.57-1.12c0.13-0.43,0.2-0.92,0.2-1.46c0-0.54-0.07-1.03-0.2-1.46c-0.13-0.44-0.32-0.81-0.57-1.12
			c-0.25-0.31-0.55-0.55-0.92-0.72c-0.36-0.17-0.77-0.25-1.23-0.25c-0.46,0-0.88,0.09-1.23,0.26c-0.36,0.17-0.66,0.42-0.91,0.73
			c-0.25,0.31-0.44,0.69-0.57,1.12C136.91,147.29,136.84,147.77,136.84,148.3z"/>
	</g>
	<g>
		<path class="st0" d="M152.61,144.72c-1.15,0-1.98,0.32-2.49,0.96c-0.51,0.64-0.77,1.51-0.77,2.62c0,0.54,0.06,1.03,0.19,1.46
			c0.13,0.44,0.32,0.81,0.57,1.13c0.25,0.32,0.57,0.56,0.95,0.74c0.38,0.17,0.82,0.26,1.33,0.26c0.27,0,0.51-0.01,0.7-0.02
			c0.2-0.01,0.37-0.03,0.51-0.06V148h2.47v5.42c-0.3,0.12-0.77,0.24-1.42,0.37c-0.65,0.13-1.46,0.2-2.42,0.2
			c-0.82,0-1.57-0.13-2.24-0.38s-1.24-0.62-1.72-1.11c-0.47-0.49-0.84-1.08-1.1-1.79c-0.26-0.71-0.39-1.51-0.39-2.42
			c0-0.92,0.14-1.73,0.43-2.44c0.28-0.71,0.67-1.3,1.17-1.79c0.5-0.49,1.08-0.86,1.75-1.12c0.67-0.25,1.38-0.38,2.14-0.38
			c0.52,0,0.98,0.03,1.4,0.1c0.42,0.07,0.77,0.15,1.08,0.24c0.3,0.09,0.55,0.18,0.74,0.28c0.2,0.1,0.33,0.17,0.42,0.22l-0.71,1.98
			c-0.34-0.18-0.72-0.33-1.16-0.47C153.6,144.79,153.12,144.72,152.61,144.72z"/>
	</g>
	<g>
		<path class="st0" d="M161.56,139.95l-2.6,2.2l-1.08-0.97l2.24-2.56L161.56,139.95z M158.36,142.82h2.47v10.96h-2.47V142.82z"/>
	</g>
	<g>
		<path class="st0" d="M170.72,153.78c-0.12-0.38-0.25-0.77-0.39-1.17c-0.14-0.4-0.28-0.8-0.42-1.2h-4.28
			c-0.14,0.4-0.28,0.8-0.42,1.2s-0.27,0.79-0.39,1.17h-2.56c0.41-1.18,0.8-2.27,1.17-3.27c0.37-1,0.73-1.95,1.09-2.83
			c0.35-0.89,0.7-1.73,1.05-2.52c0.34-0.8,0.7-1.57,1.07-2.33h2.34c0.36,0.76,0.72,1.54,1.07,2.33c0.35,0.8,0.7,1.64,1.06,2.52
			c0.35,0.89,0.72,1.83,1.09,2.83c0.37,1,0.76,2.09,1.18,3.27H170.72z M167.75,145.31c-0.05,0.16-0.14,0.38-0.24,0.65
			c-0.11,0.27-0.23,0.59-0.36,0.95c-0.14,0.36-0.29,0.75-0.45,1.19s-0.34,0.88-0.51,1.36h3.13c-0.17-0.48-0.33-0.93-0.49-1.36
			c-0.16-0.43-0.31-0.83-0.45-1.19c-0.14-0.36-0.27-0.68-0.37-0.95C167.9,145.68,167.82,145.46,167.75,145.31z"/>
	</g>
	<g>
		<path class="st0" d="M178.56,153.78v-10.96h7.4v2.07h-4.93v2.15h4.38v2.02h-4.38v2.64h5.3v2.07H178.56z"/>
	</g>
	<g>
		<path class="st0" d="M191.94,142.82h2.47v10.96h-2.47V142.82z"/>
	</g>
	<g>
		<path class="st0" d="M204.29,153.78c-0.71-1.25-1.47-2.49-2.29-3.72c-0.82-1.22-1.7-2.38-2.63-3.46v7.18h-2.44v-10.96h2.01
			c0.35,0.35,0.73,0.77,1.15,1.28c0.42,0.51,0.85,1.05,1.29,1.62c0.44,0.57,0.87,1.17,1.3,1.79c0.43,0.62,0.84,1.21,1.22,1.78v-6.47
			h2.45v10.96H204.29z"/>
	</g>
	<g>
		<path class="st0" d="M216.25,153.78c-0.71-1.25-1.47-2.49-2.29-3.72c-0.82-1.22-1.7-2.38-2.63-3.46v7.18h-2.44v-10.96h2.01
			c0.35,0.35,0.73,0.77,1.15,1.28c0.42,0.51,0.85,1.05,1.29,1.62c0.44,0.57,0.87,1.17,1.3,1.79c0.43,0.62,0.84,1.21,1.22,1.78v-6.47
			h2.45v10.96H216.25z"/>
	</g>
	<g>
		<path class="st0" d="M231.29,148.3c0,0.94-0.14,1.76-0.42,2.48c-0.28,0.71-0.66,1.31-1.15,1.79c-0.49,0.48-1.06,0.84-1.73,1.08
			c-0.67,0.24-1.39,0.36-2.16,0.36c-0.75,0-1.46-0.12-2.12-0.36c-0.66-0.24-1.24-0.6-1.74-1.08c-0.5-0.48-0.89-1.08-1.17-1.79
			c-0.28-0.71-0.43-1.54-0.43-2.48c0-0.94,0.15-1.76,0.44-2.48c0.3-0.71,0.69-1.31,1.19-1.79c0.5-0.48,1.08-0.85,1.74-1.09
			c0.66-0.24,1.35-0.36,2.08-0.36c0.75,0,1.46,0.12,2.12,0.36c0.66,0.24,1.24,0.61,1.74,1.09c0.5,0.49,0.89,1.08,1.17,1.79
			C231.15,146.53,231.29,147.36,231.29,148.3z M222.93,148.3c0,0.54,0.07,1.02,0.2,1.46c0.13,0.43,0.32,0.8,0.57,1.12
			c0.25,0.31,0.55,0.55,0.91,0.72c0.36,0.17,0.77,0.25,1.23,0.25c0.45,0,0.86-0.08,1.23-0.25c0.36-0.17,0.67-0.41,0.92-0.72
			s0.44-0.68,0.57-1.12c0.13-0.43,0.2-0.92,0.2-1.46c0-0.54-0.07-1.03-0.2-1.46c-0.13-0.44-0.32-0.81-0.57-1.12
			c-0.25-0.31-0.55-0.55-0.92-0.72c-0.36-0.17-0.77-0.25-1.23-0.25c-0.46,0-0.88,0.09-1.23,0.26c-0.36,0.17-0.66,0.42-0.91,0.73
			c-0.25,0.31-0.44,0.69-0.57,1.12C222.99,147.29,222.93,147.77,222.93,148.3z"/>
	</g>
	<g>
		<path class="st0" d="M236.23,153.78c-0.44-0.92-0.87-1.88-1.29-2.87c-0.42-0.99-0.83-1.97-1.21-2.94
			c-0.38-0.97-0.73-1.9-1.05-2.78c-0.32-0.89-0.6-1.68-0.83-2.37h2.72c0.21,0.63,0.43,1.32,0.68,2.05s0.51,1.46,0.77,2.19
			c0.26,0.73,0.51,1.42,0.75,2.09c0.24,0.67,0.47,1.24,0.69,1.72c0.21-0.48,0.43-1.05,0.67-1.72c0.24-0.67,0.5-1.36,0.76-2.09
			c0.26-0.73,0.52-1.46,0.77-2.19c0.25-0.73,0.48-1.42,0.69-2.05h2.63c-0.25,0.7-0.53,1.49-0.85,2.38
			c-0.32,0.88-0.67,1.81-1.05,2.78c-0.38,0.97-0.78,1.95-1.2,2.94c-0.42,0.99-0.85,1.95-1.28,2.86H236.23z"/>
	</g>
	<g>
		<path class="st0" d="M250.7,153.78c-0.12-0.38-0.25-0.77-0.39-1.17c-0.14-0.4-0.28-0.8-0.42-1.2h-4.28
			c-0.14,0.4-0.28,0.8-0.42,1.2s-0.27,0.79-0.39,1.17h-2.56c0.41-1.18,0.8-2.27,1.17-3.27c0.37-1,0.73-1.95,1.09-2.83
			c0.35-0.89,0.7-1.73,1.05-2.52c0.34-0.8,0.7-1.57,1.07-2.33h2.34c0.36,0.76,0.72,1.54,1.07,2.33c0.35,0.8,0.7,1.64,1.06,2.52
			c0.35,0.89,0.72,1.83,1.09,2.83c0.37,1,0.76,2.09,1.18,3.27H250.7z M247.73,145.31c-0.05,0.16-0.14,0.38-0.24,0.65
			c-0.11,0.27-0.23,0.59-0.36,0.95c-0.14,0.36-0.29,0.75-0.45,1.19s-0.34,0.88-0.51,1.36h3.13c-0.17-0.48-0.33-0.93-0.49-1.36
			c-0.16-0.43-0.31-0.83-0.45-1.19c-0.14-0.36-0.27-0.68-0.37-0.95C247.89,145.68,247.8,145.46,247.73,145.31z"/>
	</g>
	<g>
		<path class="st0" d="M259.35,154.01c-1.78,0-3.14-0.5-4.07-1.49c-0.93-0.99-1.4-2.4-1.4-4.22c0-0.91,0.14-1.72,0.43-2.43
			c0.28-0.71,0.67-1.31,1.17-1.8c0.5-0.49,1.09-0.86,1.77-1.12c0.69-0.25,1.43-0.38,2.23-0.38c0.46,0,0.89,0.03,1.27,0.1
			c0.38,0.07,0.71,0.15,1,0.24c0.28,0.09,0.52,0.18,0.71,0.28c0.19,0.1,0.33,0.17,0.41,0.22l-0.71,1.99
			c-0.34-0.18-0.73-0.33-1.18-0.46c-0.45-0.13-0.96-0.19-1.53-0.19c-0.38,0-0.75,0.06-1.12,0.19c-0.36,0.13-0.69,0.33-0.97,0.61
			c-0.28,0.28-0.5,0.64-0.67,1.08c-0.17,0.44-0.25,0.98-0.25,1.61c0,0.51,0.05,0.98,0.17,1.42c0.11,0.44,0.29,0.81,0.54,1.13
			s0.57,0.57,0.97,0.75c0.4,0.18,0.89,0.28,1.46,0.28c0.36,0,0.68-0.02,0.97-0.06c0.28-0.04,0.54-0.09,0.76-0.15
			c0.22-0.06,0.42-0.12,0.59-0.2c0.17-0.07,0.32-0.14,0.46-0.21l0.68,1.98c-0.35,0.21-0.84,0.4-1.47,0.57
			C260.92,153.92,260.18,154.01,259.35,154.01z"/>
	</g>
	<g>
		<path class="st0" d="M264.6,142.82h2.47v10.96h-2.47V142.82z"/>
	</g>
	<g>
		<path class="st0" d="M280.04,148.3c0,0.94-0.14,1.76-0.42,2.48c-0.28,0.71-0.66,1.31-1.15,1.79c-0.49,0.48-1.06,0.84-1.73,1.08
			c-0.67,0.24-1.39,0.36-2.16,0.36c-0.75,0-1.46-0.12-2.12-0.36c-0.66-0.24-1.24-0.6-1.74-1.08s-0.89-1.08-1.17-1.79
			c-0.28-0.71-0.43-1.54-0.43-2.48c0-0.94,0.15-1.76,0.44-2.48c0.3-0.71,0.69-1.31,1.19-1.79c0.5-0.48,1.08-0.85,1.74-1.09
			c0.66-0.24,1.35-0.36,2.08-0.36c0.75,0,1.46,0.12,2.12,0.36c0.66,0.24,1.24,0.61,1.74,1.09c0.5,0.49,0.89,1.08,1.17,1.79
			C279.9,146.53,280.04,147.36,280.04,148.3z M271.67,148.3c0,0.54,0.07,1.02,0.2,1.46c0.13,0.43,0.32,0.8,0.57,1.12
			c0.25,0.31,0.55,0.55,0.91,0.72c0.36,0.17,0.77,0.25,1.23,0.25c0.45,0,0.86-0.08,1.23-0.25c0.36-0.17,0.67-0.41,0.92-0.72
			s0.44-0.68,0.57-1.12c0.13-0.43,0.2-0.92,0.2-1.46c0-0.54-0.07-1.03-0.2-1.46c-0.13-0.44-0.32-0.81-0.57-1.12
			c-0.25-0.31-0.55-0.55-0.92-0.72c-0.36-0.17-0.77-0.25-1.23-0.25c-0.46,0-0.88,0.09-1.23,0.26c-0.36,0.17-0.66,0.42-0.91,0.73
			c-0.25,0.31-0.44,0.69-0.57,1.12C271.74,147.29,271.67,147.77,271.67,148.3z M276.43,139.95l-2.6,2.2l-1.08-0.97l2.24-2.56
			L276.43,139.95z"/>
	</g>
	<g>
		<path class="st0" d="M289.45,153.78c-0.71-1.25-1.47-2.49-2.29-3.72c-0.82-1.22-1.7-2.38-2.63-3.46v7.18h-2.44v-10.96h2.01
			c0.35,0.35,0.73,0.77,1.15,1.28c0.42,0.51,0.85,1.05,1.29,1.62c0.44,0.57,0.87,1.17,1.3,1.79c0.43,0.62,0.84,1.21,1.22,1.78v-6.47
			h2.45v10.96H289.45z"/>
	</g>
	<g>
		<path class="st0" d="M301.14,142.7c1.63,0,2.89,0.29,3.76,0.86c0.88,0.57,1.31,1.52,1.31,2.82c0,1.32-0.44,2.27-1.33,2.86
			c-0.89,0.59-2.15,0.88-3.8,0.88h-0.77v3.67h-2.47v-10.8c0.54-0.11,1.11-0.18,1.71-0.22C300.16,142.72,300.68,142.7,301.14,142.7z
			 M301.29,144.8c-0.18,0-0.36,0.01-0.53,0.02c-0.17,0.01-0.32,0.02-0.45,0.03v3.16h0.77c0.85,0,1.5-0.12,1.93-0.35
			c0.43-0.23,0.65-0.66,0.65-1.3c0-0.31-0.06-0.56-0.17-0.76c-0.11-0.2-0.27-0.36-0.47-0.48c-0.21-0.12-0.46-0.21-0.75-0.25
			C301.98,144.82,301.65,144.8,301.29,144.8z"/>
	</g>
	<g>
		<path class="st0" d="M314.31,153.78c-0.12-0.38-0.25-0.77-0.39-1.17c-0.14-0.4-0.28-0.8-0.42-1.2h-4.28
			c-0.14,0.4-0.28,0.8-0.42,1.2s-0.27,0.79-0.39,1.17h-2.56c0.41-1.18,0.8-2.27,1.17-3.27c0.37-1,0.73-1.95,1.09-2.83
			c0.35-0.89,0.7-1.73,1.05-2.52c0.34-0.8,0.7-1.57,1.07-2.33h2.34c0.36,0.76,0.72,1.54,1.07,2.33c0.35,0.8,0.7,1.64,1.06,2.52
			c0.35,0.89,0.72,1.83,1.09,2.83c0.37,1,0.76,2.09,1.18,3.27H314.31z M311.35,145.31c-0.05,0.16-0.14,0.38-0.24,0.65
			c-0.11,0.27-0.23,0.59-0.36,0.95c-0.14,0.36-0.29,0.75-0.45,1.19s-0.34,0.88-0.51,1.36h3.13c-0.17-0.48-0.33-0.93-0.49-1.36
			c-0.16-0.43-0.31-0.83-0.45-1.19s-0.27-0.68-0.37-0.95C311.5,145.68,311.41,145.46,311.35,145.31z"/>
	</g>
	<g>
		<path class="st0" d="M321.57,142.7c1.64,0,2.9,0.29,3.78,0.88c0.87,0.58,1.31,1.49,1.31,2.73c0,0.77-0.18,1.39-0.53,1.87
			c-0.35,0.48-0.86,0.86-1.53,1.13c0.22,0.27,0.45,0.59,0.7,0.94c0.24,0.35,0.48,0.72,0.72,1.11c0.24,0.38,0.47,0.79,0.69,1.2
			c0.22,0.42,0.43,0.82,0.62,1.23h-2.76c-0.2-0.36-0.4-0.72-0.61-1.09c-0.21-0.37-0.42-0.73-0.64-1.08s-0.43-0.68-0.64-0.99
			c-0.21-0.31-0.42-0.59-0.64-0.85h-1.22v4h-2.47v-10.8c0.54-0.11,1.09-0.18,1.67-0.22S321.12,142.7,321.57,142.7z M321.71,144.8
			c-0.18,0-0.34,0.01-0.48,0.02c-0.14,0.01-0.28,0.02-0.4,0.03v2.97h0.7c0.93,0,1.59-0.12,1.99-0.35c0.4-0.23,0.6-0.63,0.6-1.19
			c0-0.54-0.2-0.92-0.61-1.15C323.1,144.91,322.5,144.8,321.71,144.8z"/>
	</g>
	<g>
		<path class="st0" d="M336.75,153.78c-0.12-0.38-0.25-0.77-0.39-1.17c-0.14-0.4-0.28-0.8-0.42-1.2h-4.28
			c-0.14,0.4-0.28,0.8-0.42,1.2s-0.27,0.79-0.39,1.17h-2.56c0.41-1.18,0.8-2.27,1.17-3.27c0.37-1,0.73-1.95,1.09-2.83
			c0.35-0.89,0.7-1.73,1.05-2.52c0.34-0.8,0.7-1.57,1.07-2.33h2.34c0.36,0.76,0.72,1.54,1.07,2.33c0.35,0.8,0.7,1.64,1.06,2.52
			c0.35,0.89,0.72,1.83,1.09,2.83c0.37,1,0.76,2.09,1.18,3.27H336.75z M333.79,145.31c-0.05,0.16-0.14,0.38-0.24,0.65
			s-0.23,0.59-0.36,0.95c-0.14,0.36-0.29,0.75-0.45,1.19s-0.34,0.88-0.51,1.36h3.13c-0.17-0.48-0.33-0.93-0.49-1.36
			c-0.16-0.43-0.31-0.83-0.45-1.19s-0.27-0.68-0.37-0.95C333.94,145.68,333.85,145.46,333.79,145.31z"/>
	</g>
	<g>
		<path class="st0" d="M349.6,154.01c-1.78,0-3.14-0.5-4.07-1.49c-0.93-0.99-1.4-2.4-1.4-4.22c0-0.91,0.14-1.72,0.43-2.43
			c0.28-0.71,0.67-1.31,1.17-1.8c0.5-0.49,1.09-0.86,1.77-1.12c0.69-0.25,1.43-0.38,2.23-0.38c0.46,0,0.89,0.03,1.27,0.1
			c0.38,0.07,0.71,0.15,1,0.24c0.28,0.09,0.52,0.18,0.71,0.28c0.19,0.1,0.33,0.17,0.41,0.22l-0.71,1.99
			c-0.34-0.18-0.73-0.33-1.18-0.46c-0.45-0.13-0.96-0.19-1.53-0.19c-0.38,0-0.75,0.06-1.12,0.19c-0.36,0.13-0.69,0.33-0.97,0.61
			c-0.28,0.28-0.5,0.64-0.67,1.08c-0.17,0.44-0.25,0.98-0.25,1.61c0,0.51,0.05,0.98,0.17,1.42c0.11,0.44,0.29,0.81,0.54,1.13
			s0.57,0.57,0.97,0.75c0.4,0.18,0.89,0.28,1.46,0.28c0.36,0,0.68-0.02,0.97-0.06c0.28-0.04,0.54-0.09,0.76-0.15
			c0.22-0.06,0.42-0.12,0.59-0.2c0.17-0.07,0.32-0.14,0.46-0.21l0.68,1.98c-0.35,0.21-0.84,0.4-1.47,0.57
			C351.16,153.92,350.43,154.01,349.6,154.01z"/>
	</g>
	<g>
		<path class="st0" d="M359.13,154.01c-0.77,0-1.43-0.11-1.99-0.32c-0.56-0.22-1.02-0.52-1.38-0.9s-0.63-0.84-0.81-1.38
			c-0.17-0.53-0.26-1.12-0.26-1.76v-6.82h2.47v6.61c0,0.44,0.05,0.82,0.15,1.13c0.1,0.31,0.24,0.56,0.41,0.76
			c0.17,0.2,0.38,0.33,0.63,0.42c0.25,0.08,0.52,0.13,0.81,0.13c0.6,0,1.09-0.18,1.46-0.55c0.37-0.37,0.56-1,0.56-1.88v-6.61h2.47
			v6.82c0,0.64-0.09,1.23-0.27,1.77c-0.18,0.54-0.45,1-0.82,1.38c-0.37,0.38-0.84,0.68-1.41,0.89
			C360.59,153.9,359.91,154.01,359.13,154.01z"/>
	</g>
	<g>
		<path class="st0" d="M373.35,151.67v2.12h-7.32v-10.96h2.47v8.84H373.35z"/>
	</g>
	<g>
		<path class="st0" d="M381.83,142.82v2.1h-3.31v8.86h-2.47v-8.86h-3.31v-2.1H381.83z"/>
	</g>
	<g>
		<path class="st0" d="M383.41,142.82h2.47v10.96h-2.47V142.82z"/>
	</g>
	<g>
		<path class="st0" d="M391.69,153.78c-0.44-0.92-0.87-1.88-1.29-2.87c-0.42-0.99-0.83-1.97-1.21-2.94
			c-0.38-0.97-0.73-1.9-1.05-2.78c-0.32-0.89-0.6-1.68-0.83-2.37h2.72c0.21,0.63,0.43,1.32,0.68,2.05s0.51,1.46,0.77,2.19
			c0.26,0.73,0.51,1.42,0.75,2.09s0.47,1.24,0.69,1.72c0.21-0.48,0.43-1.05,0.67-1.72c0.24-0.67,0.5-1.36,0.76-2.09
			c0.26-0.73,0.52-1.46,0.77-2.19c0.25-0.73,0.48-1.42,0.69-2.05h2.63c-0.25,0.7-0.53,1.49-0.85,2.38
			c-0.32,0.88-0.67,1.81-1.05,2.78c-0.38,0.97-0.78,1.95-1.2,2.94c-0.42,0.99-0.85,1.95-1.28,2.86H391.69z"/>
	</g>
	<g>
		<path class="st0" d="M409.87,148.3c0,0.94-0.14,1.76-0.42,2.48c-0.28,0.71-0.66,1.31-1.15,1.79c-0.49,0.48-1.06,0.84-1.73,1.08
			c-0.67,0.24-1.39,0.36-2.16,0.36c-0.75,0-1.46-0.12-2.12-0.36c-0.66-0.24-1.24-0.6-1.74-1.08s-0.89-1.08-1.17-1.79
			c-0.28-0.71-0.43-1.54-0.43-2.48c0-0.94,0.15-1.76,0.44-2.48c0.3-0.71,0.69-1.31,1.19-1.79c0.5-0.48,1.08-0.85,1.74-1.09
			c0.66-0.24,1.35-0.36,2.08-0.36c0.75,0,1.46,0.12,2.12,0.36c0.66,0.24,1.24,0.61,1.74,1.09c0.5,0.49,0.89,1.08,1.17,1.79
			C409.73,146.53,409.87,147.36,409.87,148.3z M401.51,148.3c0,0.54,0.07,1.02,0.2,1.46c0.13,0.43,0.32,0.8,0.57,1.12
			c0.25,0.31,0.55,0.55,0.91,0.72c0.36,0.17,0.77,0.25,1.23,0.25c0.45,0,0.86-0.08,1.23-0.25c0.36-0.17,0.67-0.41,0.92-0.72
			s0.44-0.68,0.57-1.12c0.13-0.43,0.2-0.92,0.2-1.46c0-0.54-0.07-1.03-0.2-1.46c-0.13-0.44-0.32-0.81-0.57-1.12
			c-0.25-0.31-0.55-0.55-0.92-0.72c-0.36-0.17-0.77-0.25-1.23-0.25c-0.46,0-0.88,0.09-1.23,0.26c-0.36,0.17-0.66,0.42-0.91,0.73
			c-0.25,0.31-0.44,0.69-0.57,1.12C401.57,147.29,401.51,147.77,401.51,148.3z"/>
	</g>
	<g>
		<path class="st0" d="M414.92,151.9c0.35,0,0.64-0.03,0.86-0.09c0.23-0.06,0.41-0.14,0.55-0.24c0.14-0.1,0.23-0.22,0.28-0.36
			c0.05-0.14,0.08-0.29,0.08-0.46c0-0.36-0.17-0.66-0.51-0.89c-0.34-0.24-0.92-0.49-1.74-0.77c-0.36-0.13-0.72-0.27-1.08-0.43
			c-0.36-0.16-0.68-0.37-0.96-0.62c-0.28-0.25-0.52-0.55-0.7-0.9c-0.18-0.35-0.27-0.78-0.27-1.29c0-0.51,0.1-0.96,0.28-1.37
			c0.19-0.41,0.46-0.75,0.81-1.04c0.35-0.28,0.77-0.5,1.27-0.66c0.5-0.15,1.05-0.23,1.68-0.23c0.74,0,1.38,0.08,1.91,0.24
			c0.54,0.16,0.98,0.33,1.33,0.52l-0.71,1.95c-0.31-0.16-0.65-0.3-1.02-0.42c-0.37-0.12-0.83-0.18-1.35-0.18
			c-0.59,0-1.02,0.08-1.27,0.25c-0.26,0.16-0.39,0.41-0.39,0.75c0,0.2,0.05,0.37,0.14,0.51c0.1,0.14,0.23,0.26,0.4,0.37
			c0.17,0.11,0.37,0.21,0.6,0.3c0.23,0.09,0.48,0.18,0.75,0.28c0.57,0.21,1.06,0.42,1.49,0.62c0.42,0.21,0.77,0.45,1.05,0.72
			c0.28,0.27,0.49,0.6,0.62,0.96c0.14,0.37,0.21,0.82,0.21,1.34c0,1.02-0.36,1.82-1.08,2.38c-0.72,0.56-1.8,0.85-3.24,0.85
			c-0.48,0-0.92-0.03-1.31-0.09c-0.39-0.06-0.74-0.13-1.04-0.21c-0.3-0.08-0.56-0.17-0.77-0.27c-0.22-0.09-0.4-0.18-0.55-0.27
			l0.7-1.96c0.33,0.18,0.73,0.34,1.21,0.48C413.63,151.83,414.22,151.9,414.92,151.9z"/>
	</g>
</g>
</svg>
